# Blender v2.79 (sub 0) OBJ File: 'OldLady.blend'
# www.blender.org
mtllib Muzzle.mtl
o Cube_Cube.005
v 0.090546 0.090538 -0.001388
v 0.090589 -0.090596 -0.001388
v 0.000000 0.000000 0.297146
v -0.090539 0.090533 -0.001388
v -0.090583 -0.090591 -0.001388
v 0.000000 0.000000 -0.199737
v -0.128071 -0.000210 -0.001388
v 0.128083 -0.000210 -0.001388
v 0.010718 -0.127679 -0.001388
v -0.010661 0.127582 -0.001388
vn 0.6919 0.7181 -0.0754
vn 0.0000 0.0002 1.0000
vn 0.9971 -0.0006 -0.0757
vn -0.9971 -0.0006 -0.0757
vn -0.6916 -0.7183 -0.0754
vn 0.7182 -0.6916 -0.0761
vn 0.0457 -0.9961 -0.0757
vn 0.0000 0.0002 -1.0000
vn -0.0456 0.9961 -0.0757
vn -0.7184 0.6915 -0.0761
usemtl None
s 1
f 1//1 3//2 8//3
f 3//2 7//4 5//5
f 2//6 9//7 6//8
f 3//2 1//1 10//9
f 3//2 9//7 2//6
f 5//5 7//4 6//8
f 4//10 10//9 6//8
f 1//1 8//3 6//8
f 8//3 3//2 2//6
f 6//8 8//3 2//6
f 7//4 3//2 4//10
f 6//8 7//4 4//10
f 6//8 10//9 1//1
f 10//9 4//10 3//2
f 9//7 3//2 5//5
f 6//8 9//7 5//5
